<svg xmlns="http://www.w3.org/2000/svg" width="302" height="110" viewBox="0 0 302 110">
  <rect id="Rectangle_18662" data-name="Rectangle 18662" width="2" height="2" fill="#d1aa5f"/>
  <rect id="Rectangle_18663" data-name="Rectangle 18663" width="2" height="2" transform="translate(12)" fill="#d1aa5f"/>
  <rect id="Rectangle_18664" data-name="Rectangle 18664" width="2" height="2" transform="translate(24)" fill="#d1aa5f"/>
  <rect id="Rectangle_18665" data-name="Rectangle 18665" width="2" height="2" transform="translate(36)" fill="#d1aa5f"/>
  <rect id="Rectangle_18666" data-name="Rectangle 18666" width="2" height="2" transform="translate(48)" fill="#d1aa5f"/>
  <rect id="Rectangle_18667" data-name="Rectangle 18667" width="2" height="2" transform="translate(60)" fill="#d1aa5f"/>
  <rect id="Rectangle_18668" data-name="Rectangle 18668" width="2" height="2" transform="translate(72)" fill="#d1aa5f"/>
  <rect id="Rectangle_18669" data-name="Rectangle 18669" width="2" height="2" transform="translate(84)" fill="#d1aa5f"/>
  <rect id="Rectangle_18670" data-name="Rectangle 18670" width="2" height="2" transform="translate(96)" fill="#d1aa5f"/>
  <rect id="Rectangle_18671" data-name="Rectangle 18671" width="2" height="2" transform="translate(108)" fill="#d1aa5f"/>
  <rect id="Rectangle_18672" data-name="Rectangle 18672" width="2" height="2" transform="translate(120)" fill="#d1aa5f"/>
  <rect id="Rectangle_18673" data-name="Rectangle 18673" width="2" height="2" transform="translate(132)" fill="#d1aa5f"/>
  <rect id="Rectangle_18674" data-name="Rectangle 18674" width="2" height="2" transform="translate(144)" fill="#d1aa5f"/>
  <rect id="Rectangle_18675" data-name="Rectangle 18675" width="2" height="2" transform="translate(156)" fill="#d1aa5f"/>
  <rect id="Rectangle_18676" data-name="Rectangle 18676" width="2" height="2" transform="translate(168)" fill="#d1aa5f"/>
  <rect id="Rectangle_18677" data-name="Rectangle 18677" width="2" height="2" transform="translate(180)" fill="#d1aa5f"/>
  <rect id="Rectangle_18678" data-name="Rectangle 18678" width="2" height="2" transform="translate(192)" fill="#d1aa5f"/>
  <rect id="Rectangle_18679" data-name="Rectangle 18679" width="2" height="2" transform="translate(204)" fill="#d1aa5f"/>
  <rect id="Rectangle_18680" data-name="Rectangle 18680" width="2" height="2" transform="translate(216)" fill="#d1aa5f"/>
  <rect id="Rectangle_18681" data-name="Rectangle 18681" width="2" height="2" transform="translate(228)" fill="#d1aa5f"/>
  <rect id="Rectangle_18682" data-name="Rectangle 18682" width="2" height="2" transform="translate(240)" fill="#d1aa5f"/>
  <rect id="Rectangle_18683" data-name="Rectangle 18683" width="2" height="2" transform="translate(252)" fill="#d1aa5f"/>
  <rect id="Rectangle_18684" data-name="Rectangle 18684" width="2" height="2" transform="translate(264)" fill="#d1aa5f"/>
  <rect id="Rectangle_18685" data-name="Rectangle 18685" width="2" height="2" transform="translate(276)" fill="#d1aa5f"/>
  <rect id="Rectangle_18686" data-name="Rectangle 18686" width="2" height="2" transform="translate(288)" fill="#d1aa5f"/>
  <rect id="Rectangle_18687" data-name="Rectangle 18687" width="2" height="2" transform="translate(300)" fill="#d1aa5f"/>
  <rect id="Rectangle_18688" data-name="Rectangle 18688" width="2" height="2" transform="translate(0 12)" fill="#d1aa5f"/>
  <rect id="Rectangle_18689" data-name="Rectangle 18689" width="2" height="2" transform="translate(12 12)" fill="#d1aa5f"/>
  <rect id="Rectangle_18690" data-name="Rectangle 18690" width="2" height="2" transform="translate(24 12)" fill="#d1aa5f"/>
  <rect id="Rectangle_18691" data-name="Rectangle 18691" width="2" height="2" transform="translate(36 12)" fill="#d1aa5f"/>
  <rect id="Rectangle_18692" data-name="Rectangle 18692" width="2" height="2" transform="translate(48 12)" fill="#d1aa5f"/>
  <rect id="Rectangle_18693" data-name="Rectangle 18693" width="2" height="2" transform="translate(60 12)" fill="#d1aa5f"/>
  <rect id="Rectangle_18694" data-name="Rectangle 18694" width="2" height="2" transform="translate(72 12)" fill="#d1aa5f"/>
  <rect id="Rectangle_18695" data-name="Rectangle 18695" width="2" height="2" transform="translate(84 12)" fill="#d1aa5f"/>
  <rect id="Rectangle_18696" data-name="Rectangle 18696" width="2" height="2" transform="translate(96 12)" fill="#d1aa5f"/>
  <rect id="Rectangle_18697" data-name="Rectangle 18697" width="2" height="2" transform="translate(108 12)" fill="#d1aa5f"/>
  <rect id="Rectangle_18698" data-name="Rectangle 18698" width="2" height="2" transform="translate(120 12)" fill="#d1aa5f"/>
  <rect id="Rectangle_18699" data-name="Rectangle 18699" width="2" height="2" transform="translate(132 12)" fill="#d1aa5f"/>
  <rect id="Rectangle_18700" data-name="Rectangle 18700" width="2" height="2" transform="translate(144 12)" fill="#d1aa5f"/>
  <rect id="Rectangle_18701" data-name="Rectangle 18701" width="2" height="2" transform="translate(156 12)" fill="#d1aa5f"/>
  <rect id="Rectangle_18702" data-name="Rectangle 18702" width="2" height="2" transform="translate(168 12)" fill="#d1aa5f"/>
  <rect id="Rectangle_18703" data-name="Rectangle 18703" width="2" height="2" transform="translate(180 12)" fill="#d1aa5f"/>
  <rect id="Rectangle_18704" data-name="Rectangle 18704" width="2" height="2" transform="translate(192 12)" fill="#d1aa5f"/>
  <rect id="Rectangle_18705" data-name="Rectangle 18705" width="2" height="2" transform="translate(204 12)" fill="#d1aa5f"/>
  <rect id="Rectangle_18706" data-name="Rectangle 18706" width="2" height="2" transform="translate(216 12)" fill="#d1aa5f"/>
  <rect id="Rectangle_18707" data-name="Rectangle 18707" width="2" height="2" transform="translate(228 12)" fill="#d1aa5f"/>
  <rect id="Rectangle_18708" data-name="Rectangle 18708" width="2" height="2" transform="translate(240 12)" fill="#d1aa5f"/>
  <rect id="Rectangle_18709" data-name="Rectangle 18709" width="2" height="2" transform="translate(252 12)" fill="#d1aa5f"/>
  <rect id="Rectangle_18710" data-name="Rectangle 18710" width="2" height="2" transform="translate(264 12)" fill="#d1aa5f"/>
  <rect id="Rectangle_18711" data-name="Rectangle 18711" width="2" height="2" transform="translate(276 12)" fill="#d1aa5f"/>
  <rect id="Rectangle_18712" data-name="Rectangle 18712" width="2" height="2" transform="translate(288 12)" fill="#d1aa5f"/>
  <rect id="Rectangle_18713" data-name="Rectangle 18713" width="2" height="2" transform="translate(300 12)" fill="#d1aa5f"/>
  <rect id="Rectangle_18714" data-name="Rectangle 18714" width="2" height="2" transform="translate(0 24)" fill="#d1aa5f"/>
  <rect id="Rectangle_18715" data-name="Rectangle 18715" width="2" height="2" transform="translate(12 24)" fill="#d1aa5f"/>
  <rect id="Rectangle_18716" data-name="Rectangle 18716" width="2" height="2" transform="translate(24 24)" fill="#d1aa5f"/>
  <rect id="Rectangle_18717" data-name="Rectangle 18717" width="2" height="2" transform="translate(36 24)" fill="#d1aa5f"/>
  <rect id="Rectangle_18718" data-name="Rectangle 18718" width="2" height="2" transform="translate(48 24)" fill="#d1aa5f"/>
  <rect id="Rectangle_18719" data-name="Rectangle 18719" width="2" height="2" transform="translate(60 24)" fill="#d1aa5f"/>
  <rect id="Rectangle_18720" data-name="Rectangle 18720" width="2" height="2" transform="translate(72 24)" fill="#d1aa5f"/>
  <rect id="Rectangle_18721" data-name="Rectangle 18721" width="2" height="2" transform="translate(84 24)" fill="#d1aa5f"/>
  <rect id="Rectangle_18722" data-name="Rectangle 18722" width="2" height="2" transform="translate(96 24)" fill="#d1aa5f"/>
  <rect id="Rectangle_18723" data-name="Rectangle 18723" width="2" height="2" transform="translate(108 24)" fill="#d1aa5f"/>
  <rect id="Rectangle_18724" data-name="Rectangle 18724" width="2" height="2" transform="translate(120 24)" fill="#d1aa5f"/>
  <rect id="Rectangle_18725" data-name="Rectangle 18725" width="2" height="2" transform="translate(132 24)" fill="#d1aa5f"/>
  <rect id="Rectangle_18726" data-name="Rectangle 18726" width="2" height="2" transform="translate(144 24)" fill="#d1aa5f"/>
  <rect id="Rectangle_18727" data-name="Rectangle 18727" width="2" height="2" transform="translate(156 24)" fill="#d1aa5f"/>
  <rect id="Rectangle_18728" data-name="Rectangle 18728" width="2" height="2" transform="translate(168 24)" fill="#d1aa5f"/>
  <rect id="Rectangle_18729" data-name="Rectangle 18729" width="2" height="2" transform="translate(180 24)" fill="#d1aa5f"/>
  <rect id="Rectangle_18730" data-name="Rectangle 18730" width="2" height="2" transform="translate(192 24)" fill="#d1aa5f"/>
  <rect id="Rectangle_18731" data-name="Rectangle 18731" width="2" height="2" transform="translate(204 24)" fill="#d1aa5f"/>
  <rect id="Rectangle_18732" data-name="Rectangle 18732" width="2" height="2" transform="translate(216 24)" fill="#d1aa5f"/>
  <rect id="Rectangle_18733" data-name="Rectangle 18733" width="2" height="2" transform="translate(228 24)" fill="#d1aa5f"/>
  <rect id="Rectangle_18734" data-name="Rectangle 18734" width="2" height="2" transform="translate(240 24)" fill="#d1aa5f"/>
  <rect id="Rectangle_18735" data-name="Rectangle 18735" width="2" height="2" transform="translate(252 24)" fill="#d1aa5f"/>
  <rect id="Rectangle_18736" data-name="Rectangle 18736" width="2" height="2" transform="translate(264 24)" fill="#d1aa5f"/>
  <rect id="Rectangle_18737" data-name="Rectangle 18737" width="2" height="2" transform="translate(276 24)" fill="#d1aa5f"/>
  <rect id="Rectangle_18738" data-name="Rectangle 18738" width="2" height="2" transform="translate(288 24)" fill="#d1aa5f"/>
  <rect id="Rectangle_18739" data-name="Rectangle 18739" width="2" height="2" transform="translate(300 24)" fill="#d1aa5f"/>
  <rect id="Rectangle_18740" data-name="Rectangle 18740" width="2" height="2" transform="translate(0 36)" fill="#d1aa5f"/>
  <rect id="Rectangle_18741" data-name="Rectangle 18741" width="2" height="2" transform="translate(12 36)" fill="#d1aa5f"/>
  <rect id="Rectangle_18742" data-name="Rectangle 18742" width="2" height="2" transform="translate(24 36)" fill="#d1aa5f"/>
  <rect id="Rectangle_18743" data-name="Rectangle 18743" width="2" height="2" transform="translate(36 36)" fill="#d1aa5f"/>
  <rect id="Rectangle_18744" data-name="Rectangle 18744" width="2" height="2" transform="translate(48 36)" fill="#d1aa5f"/>
  <rect id="Rectangle_18745" data-name="Rectangle 18745" width="2" height="2" transform="translate(60 36)" fill="#d1aa5f"/>
  <rect id="Rectangle_18746" data-name="Rectangle 18746" width="2" height="2" transform="translate(72 36)" fill="#d1aa5f"/>
  <rect id="Rectangle_18747" data-name="Rectangle 18747" width="2" height="2" transform="translate(84 36)" fill="#d1aa5f"/>
  <rect id="Rectangle_18748" data-name="Rectangle 18748" width="2" height="2" transform="translate(96 36)" fill="#d1aa5f"/>
  <rect id="Rectangle_18749" data-name="Rectangle 18749" width="2" height="2" transform="translate(108 36)" fill="#d1aa5f"/>
  <rect id="Rectangle_18750" data-name="Rectangle 18750" width="2" height="2" transform="translate(120 36)" fill="#d1aa5f"/>
  <rect id="Rectangle_18751" data-name="Rectangle 18751" width="2" height="2" transform="translate(132 36)" fill="#d1aa5f"/>
  <rect id="Rectangle_18752" data-name="Rectangle 18752" width="2" height="2" transform="translate(144 36)" fill="#d1aa5f"/>
  <rect id="Rectangle_18753" data-name="Rectangle 18753" width="2" height="2" transform="translate(156 36)" fill="#d1aa5f"/>
  <rect id="Rectangle_18754" data-name="Rectangle 18754" width="2" height="2" transform="translate(168 36)" fill="#d1aa5f"/>
  <rect id="Rectangle_18755" data-name="Rectangle 18755" width="2" height="2" transform="translate(180 36)" fill="#d1aa5f"/>
  <rect id="Rectangle_18756" data-name="Rectangle 18756" width="2" height="2" transform="translate(192 36)" fill="#d1aa5f"/>
  <rect id="Rectangle_18757" data-name="Rectangle 18757" width="2" height="2" transform="translate(204 36)" fill="#d1aa5f"/>
  <rect id="Rectangle_18758" data-name="Rectangle 18758" width="2" height="2" transform="translate(216 36)" fill="#d1aa5f"/>
  <rect id="Rectangle_18759" data-name="Rectangle 18759" width="2" height="2" transform="translate(228 36)" fill="#d1aa5f"/>
  <rect id="Rectangle_18760" data-name="Rectangle 18760" width="2" height="2" transform="translate(240 36)" fill="#d1aa5f"/>
  <rect id="Rectangle_18761" data-name="Rectangle 18761" width="2" height="2" transform="translate(252 36)" fill="#d1aa5f"/>
  <rect id="Rectangle_18762" data-name="Rectangle 18762" width="2" height="2" transform="translate(264 36)" fill="#d1aa5f"/>
  <rect id="Rectangle_18763" data-name="Rectangle 18763" width="2" height="2" transform="translate(276 36)" fill="#d1aa5f"/>
  <rect id="Rectangle_18764" data-name="Rectangle 18764" width="2" height="2" transform="translate(288 36)" fill="#d1aa5f"/>
  <rect id="Rectangle_18765" data-name="Rectangle 18765" width="2" height="2" transform="translate(300 36)" fill="#d1aa5f"/>
  <rect id="Rectangle_18766" data-name="Rectangle 18766" width="2" height="2" transform="translate(0 48)" fill="#d1aa5f"/>
  <rect id="Rectangle_18767" data-name="Rectangle 18767" width="2" height="2" transform="translate(12 48)" fill="#d1aa5f"/>
  <rect id="Rectangle_18768" data-name="Rectangle 18768" width="2" height="2" transform="translate(24 48)" fill="#d1aa5f"/>
  <rect id="Rectangle_18769" data-name="Rectangle 18769" width="2" height="2" transform="translate(36 48)" fill="#d1aa5f"/>
  <rect id="Rectangle_18770" data-name="Rectangle 18770" width="2" height="2" transform="translate(48 48)" fill="#d1aa5f"/>
  <rect id="Rectangle_18771" data-name="Rectangle 18771" width="2" height="2" transform="translate(60 48)" fill="#d1aa5f"/>
  <rect id="Rectangle_18772" data-name="Rectangle 18772" width="2" height="2" transform="translate(72 48)" fill="#d1aa5f"/>
  <rect id="Rectangle_18773" data-name="Rectangle 18773" width="2" height="2" transform="translate(84 48)" fill="#d1aa5f"/>
  <rect id="Rectangle_18774" data-name="Rectangle 18774" width="2" height="2" transform="translate(96 48)" fill="#d1aa5f"/>
  <rect id="Rectangle_18775" data-name="Rectangle 18775" width="2" height="2" transform="translate(108 48)" fill="#d1aa5f"/>
  <rect id="Rectangle_18776" data-name="Rectangle 18776" width="2" height="2" transform="translate(120 48)" fill="#d1aa5f"/>
  <rect id="Rectangle_18777" data-name="Rectangle 18777" width="2" height="2" transform="translate(132 48)" fill="#d1aa5f"/>
  <rect id="Rectangle_18778" data-name="Rectangle 18778" width="2" height="2" transform="translate(144 48)" fill="#d1aa5f"/>
  <rect id="Rectangle_18779" data-name="Rectangle 18779" width="2" height="2" transform="translate(156 48)" fill="#d1aa5f"/>
  <rect id="Rectangle_18780" data-name="Rectangle 18780" width="2" height="2" transform="translate(168 48)" fill="#d1aa5f"/>
  <rect id="Rectangle_18781" data-name="Rectangle 18781" width="2" height="2" transform="translate(180 48)" fill="#d1aa5f"/>
  <rect id="Rectangle_18782" data-name="Rectangle 18782" width="2" height="2" transform="translate(192 48)" fill="#d1aa5f"/>
  <rect id="Rectangle_18783" data-name="Rectangle 18783" width="2" height="2" transform="translate(204 48)" fill="#d1aa5f"/>
  <rect id="Rectangle_18784" data-name="Rectangle 18784" width="2" height="2" transform="translate(216 48)" fill="#d1aa5f"/>
  <rect id="Rectangle_18785" data-name="Rectangle 18785" width="2" height="2" transform="translate(228 48)" fill="#d1aa5f"/>
  <rect id="Rectangle_18786" data-name="Rectangle 18786" width="2" height="2" transform="translate(240 48)" fill="#d1aa5f"/>
  <rect id="Rectangle_18787" data-name="Rectangle 18787" width="2" height="2" transform="translate(252 48)" fill="#d1aa5f"/>
  <rect id="Rectangle_18788" data-name="Rectangle 18788" width="2" height="2" transform="translate(264 48)" fill="#d1aa5f"/>
  <rect id="Rectangle_18789" data-name="Rectangle 18789" width="2" height="2" transform="translate(276 48)" fill="#d1aa5f"/>
  <rect id="Rectangle_18790" data-name="Rectangle 18790" width="2" height="2" transform="translate(288 48)" fill="#d1aa5f"/>
  <rect id="Rectangle_18791" data-name="Rectangle 18791" width="2" height="2" transform="translate(300 48)" fill="#d1aa5f"/>
  <rect id="Rectangle_18792" data-name="Rectangle 18792" width="2" height="2" transform="translate(0 60)" fill="#d1aa5f"/>
  <rect id="Rectangle_18793" data-name="Rectangle 18793" width="2" height="2" transform="translate(12 60)" fill="#d1aa5f"/>
  <rect id="Rectangle_18794" data-name="Rectangle 18794" width="2" height="2" transform="translate(24 60)" fill="#d1aa5f"/>
  <rect id="Rectangle_18795" data-name="Rectangle 18795" width="2" height="2" transform="translate(36 60)" fill="#d1aa5f"/>
  <rect id="Rectangle_18796" data-name="Rectangle 18796" width="2" height="2" transform="translate(48 60)" fill="#d1aa5f"/>
  <rect id="Rectangle_18797" data-name="Rectangle 18797" width="2" height="2" transform="translate(60 60)" fill="#d1aa5f"/>
  <rect id="Rectangle_18798" data-name="Rectangle 18798" width="2" height="2" transform="translate(72 60)" fill="#d1aa5f"/>
  <rect id="Rectangle_18799" data-name="Rectangle 18799" width="2" height="2" transform="translate(84 60)" fill="#d1aa5f"/>
  <rect id="Rectangle_18800" data-name="Rectangle 18800" width="2" height="2" transform="translate(96 60)" fill="#d1aa5f"/>
  <rect id="Rectangle_18801" data-name="Rectangle 18801" width="2" height="2" transform="translate(108 60)" fill="#d1aa5f"/>
  <rect id="Rectangle_18802" data-name="Rectangle 18802" width="2" height="2" transform="translate(120 60)" fill="#d1aa5f"/>
  <rect id="Rectangle_18803" data-name="Rectangle 18803" width="2" height="2" transform="translate(132 60)" fill="#d1aa5f"/>
  <rect id="Rectangle_18804" data-name="Rectangle 18804" width="2" height="2" transform="translate(144 60)" fill="#d1aa5f"/>
  <rect id="Rectangle_18805" data-name="Rectangle 18805" width="2" height="2" transform="translate(156 60)" fill="#d1aa5f"/>
  <rect id="Rectangle_18806" data-name="Rectangle 18806" width="2" height="2" transform="translate(168 60)" fill="#d1aa5f"/>
  <rect id="Rectangle_18807" data-name="Rectangle 18807" width="2" height="2" transform="translate(180 60)" fill="#d1aa5f"/>
  <rect id="Rectangle_18808" data-name="Rectangle 18808" width="2" height="2" transform="translate(192 60)" fill="#d1aa5f"/>
  <rect id="Rectangle_18809" data-name="Rectangle 18809" width="2" height="2" transform="translate(204 60)" fill="#d1aa5f"/>
  <rect id="Rectangle_18810" data-name="Rectangle 18810" width="2" height="2" transform="translate(216 60)" fill="#d1aa5f"/>
  <rect id="Rectangle_18811" data-name="Rectangle 18811" width="2" height="2" transform="translate(228 60)" fill="#d1aa5f"/>
  <rect id="Rectangle_18812" data-name="Rectangle 18812" width="2" height="2" transform="translate(240 60)" fill="#d1aa5f"/>
  <rect id="Rectangle_18813" data-name="Rectangle 18813" width="2" height="2" transform="translate(252 60)" fill="#d1aa5f"/>
  <rect id="Rectangle_18814" data-name="Rectangle 18814" width="2" height="2" transform="translate(264 60)" fill="#d1aa5f"/>
  <rect id="Rectangle_18815" data-name="Rectangle 18815" width="2" height="2" transform="translate(276 60)" fill="#d1aa5f"/>
  <rect id="Rectangle_18816" data-name="Rectangle 18816" width="2" height="2" transform="translate(288 60)" fill="#d1aa5f"/>
  <rect id="Rectangle_18817" data-name="Rectangle 18817" width="2" height="2" transform="translate(300 60)" fill="#d1aa5f"/>
  <rect id="Rectangle_18818" data-name="Rectangle 18818" width="2" height="2" transform="translate(0 72)" fill="#d1aa5f"/>
  <rect id="Rectangle_18819" data-name="Rectangle 18819" width="2" height="2" transform="translate(12 72)" fill="#d1aa5f"/>
  <rect id="Rectangle_18820" data-name="Rectangle 18820" width="2" height="2" transform="translate(24 72)" fill="#d1aa5f"/>
  <rect id="Rectangle_18821" data-name="Rectangle 18821" width="2" height="2" transform="translate(36 72)" fill="#d1aa5f"/>
  <rect id="Rectangle_18822" data-name="Rectangle 18822" width="2" height="2" transform="translate(48 72)" fill="#d1aa5f"/>
  <rect id="Rectangle_18823" data-name="Rectangle 18823" width="2" height="2" transform="translate(60 72)" fill="#d1aa5f"/>
  <rect id="Rectangle_18824" data-name="Rectangle 18824" width="2" height="2" transform="translate(72 72)" fill="#d1aa5f"/>
  <rect id="Rectangle_18825" data-name="Rectangle 18825" width="2" height="2" transform="translate(84 72)" fill="#d1aa5f"/>
  <rect id="Rectangle_18826" data-name="Rectangle 18826" width="2" height="2" transform="translate(96 72)" fill="#d1aa5f"/>
  <rect id="Rectangle_18827" data-name="Rectangle 18827" width="2" height="2" transform="translate(108 72)" fill="#d1aa5f"/>
  <rect id="Rectangle_18828" data-name="Rectangle 18828" width="2" height="2" transform="translate(120 72)" fill="#d1aa5f"/>
  <rect id="Rectangle_18829" data-name="Rectangle 18829" width="2" height="2" transform="translate(132 72)" fill="#d1aa5f"/>
  <rect id="Rectangle_18830" data-name="Rectangle 18830" width="2" height="2" transform="translate(144 72)" fill="#d1aa5f"/>
  <rect id="Rectangle_18831" data-name="Rectangle 18831" width="2" height="2" transform="translate(156 72)" fill="#d1aa5f"/>
  <rect id="Rectangle_18832" data-name="Rectangle 18832" width="2" height="2" transform="translate(168 72)" fill="#d1aa5f"/>
  <rect id="Rectangle_18833" data-name="Rectangle 18833" width="2" height="2" transform="translate(180 72)" fill="#d1aa5f"/>
  <rect id="Rectangle_18834" data-name="Rectangle 18834" width="2" height="2" transform="translate(192 72)" fill="#d1aa5f"/>
  <rect id="Rectangle_18835" data-name="Rectangle 18835" width="2" height="2" transform="translate(204 72)" fill="#d1aa5f"/>
  <rect id="Rectangle_18836" data-name="Rectangle 18836" width="2" height="2" transform="translate(216 72)" fill="#d1aa5f"/>
  <rect id="Rectangle_18837" data-name="Rectangle 18837" width="2" height="2" transform="translate(228 72)" fill="#d1aa5f"/>
  <rect id="Rectangle_18838" data-name="Rectangle 18838" width="2" height="2" transform="translate(240 72)" fill="#d1aa5f"/>
  <rect id="Rectangle_18839" data-name="Rectangle 18839" width="2" height="2" transform="translate(252 72)" fill="#d1aa5f"/>
  <rect id="Rectangle_18840" data-name="Rectangle 18840" width="2" height="2" transform="translate(264 72)" fill="#d1aa5f"/>
  <rect id="Rectangle_18841" data-name="Rectangle 18841" width="2" height="2" transform="translate(276 72)" fill="#d1aa5f"/>
  <rect id="Rectangle_18842" data-name="Rectangle 18842" width="2" height="2" transform="translate(288 72)" fill="#d1aa5f"/>
  <rect id="Rectangle_18843" data-name="Rectangle 18843" width="2" height="2" transform="translate(300 72)" fill="#d1aa5f"/>
  <rect id="Rectangle_18844" data-name="Rectangle 18844" width="2" height="2" transform="translate(0 84)" fill="#d1aa5f"/>
  <rect id="Rectangle_18845" data-name="Rectangle 18845" width="2" height="2" transform="translate(12 84)" fill="#d1aa5f"/>
  <rect id="Rectangle_18846" data-name="Rectangle 18846" width="2" height="2" transform="translate(24 84)" fill="#d1aa5f"/>
  <rect id="Rectangle_18847" data-name="Rectangle 18847" width="2" height="2" transform="translate(36 84)" fill="#d1aa5f"/>
  <rect id="Rectangle_18848" data-name="Rectangle 18848" width="2" height="2" transform="translate(48 84)" fill="#d1aa5f"/>
  <rect id="Rectangle_18849" data-name="Rectangle 18849" width="2" height="2" transform="translate(60 84)" fill="#d1aa5f"/>
  <rect id="Rectangle_18850" data-name="Rectangle 18850" width="2" height="2" transform="translate(72 84)" fill="#d1aa5f"/>
  <rect id="Rectangle_18851" data-name="Rectangle 18851" width="2" height="2" transform="translate(84 84)" fill="#d1aa5f"/>
  <rect id="Rectangle_18852" data-name="Rectangle 18852" width="2" height="2" transform="translate(96 84)" fill="#d1aa5f"/>
  <rect id="Rectangle_18853" data-name="Rectangle 18853" width="2" height="2" transform="translate(108 84)" fill="#d1aa5f"/>
  <rect id="Rectangle_18854" data-name="Rectangle 18854" width="2" height="2" transform="translate(120 84)" fill="#d1aa5f"/>
  <rect id="Rectangle_18855" data-name="Rectangle 18855" width="2" height="2" transform="translate(132 84)" fill="#d1aa5f"/>
  <rect id="Rectangle_18856" data-name="Rectangle 18856" width="2" height="2" transform="translate(144 84)" fill="#d1aa5f"/>
  <rect id="Rectangle_18857" data-name="Rectangle 18857" width="2" height="2" transform="translate(156 84)" fill="#d1aa5f"/>
  <rect id="Rectangle_18858" data-name="Rectangle 18858" width="2" height="2" transform="translate(168 84)" fill="#d1aa5f"/>
  <rect id="Rectangle_18859" data-name="Rectangle 18859" width="2" height="2" transform="translate(180 84)" fill="#d1aa5f"/>
  <rect id="Rectangle_18860" data-name="Rectangle 18860" width="2" height="2" transform="translate(192 84)" fill="#d1aa5f"/>
  <rect id="Rectangle_18861" data-name="Rectangle 18861" width="2" height="2" transform="translate(204 84)" fill="#d1aa5f"/>
  <rect id="Rectangle_18862" data-name="Rectangle 18862" width="2" height="2" transform="translate(216 84)" fill="#d1aa5f"/>
  <rect id="Rectangle_18863" data-name="Rectangle 18863" width="2" height="2" transform="translate(228 84)" fill="#d1aa5f"/>
  <rect id="Rectangle_18864" data-name="Rectangle 18864" width="2" height="2" transform="translate(240 84)" fill="#d1aa5f"/>
  <rect id="Rectangle_18865" data-name="Rectangle 18865" width="2" height="2" transform="translate(252 84)" fill="#d1aa5f"/>
  <rect id="Rectangle_18866" data-name="Rectangle 18866" width="2" height="2" transform="translate(264 84)" fill="#d1aa5f"/>
  <rect id="Rectangle_18867" data-name="Rectangle 18867" width="2" height="2" transform="translate(276 84)" fill="#d1aa5f"/>
  <rect id="Rectangle_18868" data-name="Rectangle 18868" width="2" height="2" transform="translate(288 84)" fill="#d1aa5f"/>
  <rect id="Rectangle_18869" data-name="Rectangle 18869" width="2" height="2" transform="translate(300 84)" fill="#d1aa5f"/>
  <rect id="Rectangle_18870" data-name="Rectangle 18870" width="2" height="2" transform="translate(0 96)" fill="#d1aa5f"/>
  <rect id="Rectangle_18871" data-name="Rectangle 18871" width="2" height="2" transform="translate(12 96)" fill="#d1aa5f"/>
  <rect id="Rectangle_18872" data-name="Rectangle 18872" width="2" height="2" transform="translate(24 96)" fill="#d1aa5f"/>
  <rect id="Rectangle_18873" data-name="Rectangle 18873" width="2" height="2" transform="translate(36 96)" fill="#d1aa5f"/>
  <rect id="Rectangle_18874" data-name="Rectangle 18874" width="2" height="2" transform="translate(48 96)" fill="#d1aa5f"/>
  <rect id="Rectangle_18875" data-name="Rectangle 18875" width="2" height="2" transform="translate(60 96)" fill="#d1aa5f"/>
  <rect id="Rectangle_18876" data-name="Rectangle 18876" width="2" height="2" transform="translate(72 96)" fill="#d1aa5f"/>
  <rect id="Rectangle_18877" data-name="Rectangle 18877" width="2" height="2" transform="translate(84 96)" fill="#d1aa5f"/>
  <rect id="Rectangle_18878" data-name="Rectangle 18878" width="2" height="2" transform="translate(96 96)" fill="#d1aa5f"/>
  <rect id="Rectangle_18879" data-name="Rectangle 18879" width="2" height="2" transform="translate(108 96)" fill="#d1aa5f"/>
  <rect id="Rectangle_18880" data-name="Rectangle 18880" width="2" height="2" transform="translate(120 96)" fill="#d1aa5f"/>
  <rect id="Rectangle_18881" data-name="Rectangle 18881" width="2" height="2" transform="translate(132 96)" fill="#d1aa5f"/>
  <rect id="Rectangle_18882" data-name="Rectangle 18882" width="2" height="2" transform="translate(144 96)" fill="#d1aa5f"/>
  <rect id="Rectangle_18883" data-name="Rectangle 18883" width="2" height="2" transform="translate(156 96)" fill="#d1aa5f"/>
  <rect id="Rectangle_18884" data-name="Rectangle 18884" width="2" height="2" transform="translate(168 96)" fill="#d1aa5f"/>
  <rect id="Rectangle_18885" data-name="Rectangle 18885" width="2" height="2" transform="translate(180 96)" fill="#d1aa5f"/>
  <rect id="Rectangle_18886" data-name="Rectangle 18886" width="2" height="2" transform="translate(192 96)" fill="#d1aa5f"/>
  <rect id="Rectangle_18887" data-name="Rectangle 18887" width="2" height="2" transform="translate(204 96)" fill="#d1aa5f"/>
  <rect id="Rectangle_18888" data-name="Rectangle 18888" width="2" height="2" transform="translate(216 96)" fill="#d1aa5f"/>
  <rect id="Rectangle_18889" data-name="Rectangle 18889" width="2" height="2" transform="translate(228 96)" fill="#d1aa5f"/>
  <rect id="Rectangle_18890" data-name="Rectangle 18890" width="2" height="2" transform="translate(240 96)" fill="#d1aa5f"/>
  <rect id="Rectangle_18891" data-name="Rectangle 18891" width="2" height="2" transform="translate(252 96)" fill="#d1aa5f"/>
  <rect id="Rectangle_18892" data-name="Rectangle 18892" width="2" height="2" transform="translate(264 96)" fill="#d1aa5f"/>
  <rect id="Rectangle_18893" data-name="Rectangle 18893" width="2" height="2" transform="translate(276 96)" fill="#d1aa5f"/>
  <rect id="Rectangle_18894" data-name="Rectangle 18894" width="2" height="2" transform="translate(288 96)" fill="#d1aa5f"/>
  <rect id="Rectangle_18895" data-name="Rectangle 18895" width="2" height="2" transform="translate(300 96)" fill="#d1aa5f"/>
  <rect id="Rectangle_18896" data-name="Rectangle 18896" width="2" height="2" transform="translate(0 108)" fill="#d1aa5f"/>
  <rect id="Rectangle_18897" data-name="Rectangle 18897" width="2" height="2" transform="translate(12 108)" fill="#d1aa5f"/>
  <rect id="Rectangle_18898" data-name="Rectangle 18898" width="2" height="2" transform="translate(24 108)" fill="#d1aa5f"/>
  <rect id="Rectangle_18899" data-name="Rectangle 18899" width="2" height="2" transform="translate(36 108)" fill="#d1aa5f"/>
  <rect id="Rectangle_18900" data-name="Rectangle 18900" width="2" height="2" transform="translate(48 108)" fill="#d1aa5f"/>
  <rect id="Rectangle_18901" data-name="Rectangle 18901" width="2" height="2" transform="translate(60 108)" fill="#d1aa5f"/>
  <rect id="Rectangle_18902" data-name="Rectangle 18902" width="2" height="2" transform="translate(72 108)" fill="#d1aa5f"/>
  <rect id="Rectangle_18903" data-name="Rectangle 18903" width="2" height="2" transform="translate(84 108)" fill="#d1aa5f"/>
  <rect id="Rectangle_18904" data-name="Rectangle 18904" width="2" height="2" transform="translate(96 108)" fill="#d1aa5f"/>
  <rect id="Rectangle_18905" data-name="Rectangle 18905" width="2" height="2" transform="translate(108 108)" fill="#d1aa5f"/>
  <rect id="Rectangle_18906" data-name="Rectangle 18906" width="2" height="2" transform="translate(120 108)" fill="#d1aa5f"/>
  <rect id="Rectangle_18907" data-name="Rectangle 18907" width="2" height="2" transform="translate(132 108)" fill="#d1aa5f"/>
  <rect id="Rectangle_18908" data-name="Rectangle 18908" width="2" height="2" transform="translate(144 108)" fill="#d1aa5f"/>
  <rect id="Rectangle_18909" data-name="Rectangle 18909" width="2" height="2" transform="translate(156 108)" fill="#d1aa5f"/>
  <rect id="Rectangle_18910" data-name="Rectangle 18910" width="2" height="2" transform="translate(168 108)" fill="#d1aa5f"/>
  <rect id="Rectangle_18911" data-name="Rectangle 18911" width="2" height="2" transform="translate(180 108)" fill="#d1aa5f"/>
  <rect id="Rectangle_18912" data-name="Rectangle 18912" width="2" height="2" transform="translate(192 108)" fill="#d1aa5f"/>
  <rect id="Rectangle_18913" data-name="Rectangle 18913" width="2" height="2" transform="translate(204 108)" fill="#d1aa5f"/>
  <rect id="Rectangle_18914" data-name="Rectangle 18914" width="2" height="2" transform="translate(216 108)" fill="#d1aa5f"/>
  <rect id="Rectangle_18915" data-name="Rectangle 18915" width="2" height="2" transform="translate(228 108)" fill="#d1aa5f"/>
  <rect id="Rectangle_18916" data-name="Rectangle 18916" width="2" height="2" transform="translate(240 108)" fill="#d1aa5f"/>
  <rect id="Rectangle_18917" data-name="Rectangle 18917" width="2" height="2" transform="translate(252 108)" fill="#d1aa5f"/>
  <rect id="Rectangle_18918" data-name="Rectangle 18918" width="2" height="2" transform="translate(264 108)" fill="#d1aa5f"/>
  <rect id="Rectangle_18919" data-name="Rectangle 18919" width="2" height="2" transform="translate(276 108)" fill="#d1aa5f"/>
  <rect id="Rectangle_18920" data-name="Rectangle 18920" width="2" height="2" transform="translate(288 108)" fill="#d1aa5f"/>
  <rect id="Rectangle_18921" data-name="Rectangle 18921" width="2" height="2" transform="translate(300 108)" fill="#d1aa5f"/>
</svg>
