<svg viewBox="0 0 205.77865599999998 552.4149012875537" xmlns="http://www.w3.org/2000/svg" width="205.77865599999998" height="552.4149012875537"><g transform="translate(-235.07 -333.24)"><g transform="translate(235.07 333.24)"><line fill="none" y2="9.063" x1="9.047"/><path fill="#dbdbdb" transform="translate(-235.07 -333.24)" d="M245.248,333.24,235.07,343.434v-2.246l7.916-7.948Z"/></g><g transform="translate(235.07 333.24)"><line fill="none" y2="44.902" x1="44.806"/><path fill="#dbdbdb" transform="translate(-235.07 -333.24)" d="M280.991,333.24,235.07,379.273v-2.262l43.659-43.771Z"/></g><g transform="translate(235.07 333.24)"><line fill="none" y2="80.74" x1="80.549"/><path fill="#dbdbdb" transform="translate(-235.07 -333.24)" d="M316.75,333.24l-81.68,81.871v-2.246L314.5,333.24Z"/></g><g transform="translate(235.07 333.24)"><line fill="none" y2="116.579" x1="116.308"/><path fill="#dbdbdb" transform="translate(-235.07 -333.24)" d="M352.493,333.24,235.07,450.95v-2.262L350.247,333.24Z"/></g><g transform="translate(235.07 333.24)"><line fill="none" y2="152.417" x1="152.051"/><path fill="#dbdbdb" transform="translate(-235.07 -333.24)" d="M388.252,333.24,235.07,486.788v-2.262L385.99,333.24Z"/></g><g transform="translate(235.07 333.24)"><line fill="none" y2="188.256" x1="187.81"/><path fill="#dbdbdb" transform="translate(-235.07 -333.24)" d="M423.995,333.24,235.07,522.627v-2.262L421.749,333.24Z"/></g><g transform="translate(235.07 333.24)"><line fill="none" y2="224.094" x1="223.553"/><path fill="#dbdbdb" transform="translate(-235.07 -333.24)" d="M459.753,333.24,235.07,558.465v-2.278L457.492,333.24Z"/></g><g transform="translate(235.07 333.24)"><line fill="none" y2="259.917" x1="259.295"/><path fill="#dbdbdb" transform="translate(-235.07 -333.24)" d="M495.5,333.24,235.07,594.3v-2.262l258.18-258.8Z"/></g><g transform="translate(235.07 333.24)"><line fill="none" y2="295.771" x1="295.054"/><path fill="#dbdbdb" transform="translate(-235.07 -333.24)" d="M531.239,333.24,235.07,630.126V627.88L528.993,333.24Z"/></g><g transform="translate(235.07 333.24)"><line fill="none" y2="331.594" x1="330.797"/><path fill="#dbdbdb" transform="translate(-235.07 -333.24)" d="M567,333.24,235.07,665.98v-2.262L564.752,333.24Z"/></g><g transform="translate(235.07 333.24)"><line fill="none" y2="367.432" x1="366.556"/><path fill="#dbdbdb" transform="translate(-235.07 -333.24)" d="M602.757,333.24,235.07,701.8v-2.246L600.5,333.24Z"/></g><g transform="translate(235.07 333.24)"><line fill="none" y2="403.287" x1="402.315"/><path fill="#dbdbdb" transform="translate(-235.07 -333.24)" d="M638.5,333.24l-403.43,404.4V735.38L636.238,333.24Z"/></g><g transform="translate(235.07 333.24)"><line fill="none" y2="439.109" x1="438.058"/><path fill="#dbdbdb" transform="translate(-235.07 -333.24)" d="M674.259,333.24,235.07,773.48v-2.246L672.013,333.24Z"/></g><g transform="translate(235.07 333.24)"><line fill="none" y2="474.948" x1="473.817"/><path fill="#dbdbdb" transform="translate(-235.07 -333.24)" d="M710,333.24,235.07,809.319v-2.262L707.756,333.24Z"/></g><g transform="translate(235.07 333.24)"><line fill="none" y2="510.786" x1="509.56"/><path fill="#dbdbdb" transform="translate(-235.07 -333.24)" d="M745.76,333.24,235.07,845.157V842.9L743.5,333.24Z"/></g><g transform="translate(235.07 333.24)"><line fill="none" y2="546.625" x1="545.318"/><path fill="#dbdbdb" transform="translate(-235.07 -333.24)" d="M781.5,333.24,235.07,881v-2.262L779.258,333.24Z"/></g><g transform="translate(261.527 333.24)"><line fill="none" transform="translate(1.147)" y2="554.796" x1="553.458"/><path fill="#dbdbdb" transform="translate(-251.68 -333.24)" d="M807.416,333.24l-553.474,554.8H251.68l553.474-554.8Z"/></g><g transform="translate(297.302 333.24)"><line fill="none" transform="translate(1.115)" y2="554.796" x1="553.458"/><path fill="#dbdbdb" transform="translate(-274.14 -333.24)" d="M829.844,333.24,276.37,888.036h-2.23L827.6,333.24Z"/></g><g transform="translate(333.044 333.24)"><line fill="none" transform="translate(1.131)" y2="554.796" x1="553.458"/><path fill="#dbdbdb" transform="translate(-296.58 -333.24)" d="M852.284,333.24l-553.458,554.8H296.58l553.458-554.8Z"/></g><g transform="translate(368.787 333.24)"><line fill="none" transform="translate(1.131)" y2="554.796" x1="553.458"/><path fill="#dbdbdb" transform="translate(-319.02 -333.24)" d="M874.74,333.24l-553.458,554.8H319.02l553.474-554.8Z"/></g><g transform="translate(404.546 333.24)"><line fill="none" transform="translate(1.131)" y2="554.796" x1="553.458"/><path fill="#dbdbdb" transform="translate(-341.47 -333.24)" d="M897.19,333.24l-553.474,554.8H341.47l553.458-554.8Z"/></g><g transform="translate(440.289 333.24)"><line fill="none" transform="translate(1.147)" y2="554.796" x1="553.442"/><path fill="#dbdbdb" transform="translate(-363.91 -333.24)" d="M919.63,333.24l-553.458,554.8H363.91l553.474-554.8Z"/></g><g transform="translate(476.048 333.24)"><line fill="none" transform="translate(1.115)" y2="554.796" x1="553.474"/><path fill="#dbdbdb" transform="translate(-386.36 -333.24)" d="M942.064,333.24l-553.458,554.8H386.36l553.458-554.8Z"/></g><g transform="translate(511.791 333.24)"><line fill="none" transform="translate(1.131)" y2="554.796" x1="553.458"/><path fill="#dbdbdb" transform="translate(-408.8 -333.24)" d="M964.52,333.24l-553.474,554.8H408.8l553.474-554.8Z"/></g><g transform="translate(547.55 333.24)"><line fill="none" transform="translate(1.131)" y2="554.796" x1="553.458"/><path fill="#dbdbdb" transform="translate(-431.25 -333.24)" d="M986.954,333.24,433.5,888.036H431.25l553.458-554.8Z"/></g><g transform="translate(583.309 333.24)"><line fill="none" transform="translate(1.115)" y2="554.796" x1="553.474"/><path fill="#dbdbdb" transform="translate(-453.7 -333.24)" d="M1009.4,333.24l-553.458,554.8H453.7l553.458-554.8Z"/></g><g transform="translate(619.052 333.24)"><line fill="none" transform="translate(1.131)" y2="554.796" x1="553.458"/><path fill="#dbdbdb" transform="translate(-476.14 -333.24)" d="M1031.844,333.24l-553.458,554.8H476.14L1029.6,333.24Z"/></g><g transform="translate(654.81 333.24)"><line fill="none" transform="translate(1.115)" y2="554.796" x1="553.458"/><path fill="#dbdbdb" transform="translate(-498.59 -333.24)" d="M1054.294,333.24l-553.458,554.8H498.59l553.458-554.8Z"/></g><g transform="translate(690.553 333.24)"><line fill="none" transform="translate(1.131)" y2="554.796" x1="553.442"/><path fill="#dbdbdb" transform="translate(-521.03 -333.24)" d="M1076.734,333.24l-553.458,554.8H521.03l553.458-554.8Z"/></g><g transform="translate(726.296 333.24)"><line fill="none" transform="translate(1.131)" y2="554.796" x1="553.458"/><path fill="#dbdbdb" transform="translate(-543.47 -333.24)" d="M1099.189,333.24l-553.458,554.8H543.47l553.474-554.8Z"/></g><g transform="translate(762.055 333.24)"><line fill="none" transform="translate(1.131)" y2="554.796" x1="553.458"/><path fill="#dbdbdb" transform="translate(-565.92 -333.24)" d="M1121.624,333.24l-553.458,554.8H565.92l553.458-554.8Z"/></g><g transform="translate(797.798 333.24)"><line fill="none" transform="translate(1.131)" y2="554.796" x1="553.458"/><path fill="#dbdbdb" transform="translate(-588.36 -333.24)" d="M1144.08,333.24l-553.458,554.8H588.36l553.474-554.8Z"/></g><g transform="translate(833.557 333.24)"><line fill="none" transform="translate(1.115)" y2="554.796" x1="553.474"/><path fill="#dbdbdb" transform="translate(-610.81 -333.24)" d="M1166.514,333.24l-553.458,554.8H610.81l553.458-554.8Z"/></g><g transform="translate(869.3 333.24)"><line fill="none" transform="translate(1.131)" y2="554.796" x1="553.458"/><path fill="#dbdbdb" transform="translate(-633.25 -333.24)" d="M1188.492,333.24v.478L635.512,888.036H633.25l553.458-554.8Z"/></g><g transform="translate(905.059 367.31)"><line fill="none" transform="translate(1.115 1.115)" y2="519.61" x1="518.368"/><path fill="#dbdbdb" transform="translate(-655.7 -354.63)" d="M1175.183,354.63v2.23l-517.237,518.5H655.7Z"/></g><g transform="translate(940.802 403.133)"><line fill="none" transform="translate(1.131 1.131)" y2="483.772" x1="482.609"/><path fill="#dbdbdb" transform="translate(-678.14 -377.12)" d="M1161.88,377.12v2.246L680.386,862.023H678.14Z"/></g><g transform="translate(976.561 438.972)"><line fill="none" transform="translate(1.115 1.115)" y2="447.949" x1="446.866"/><path fill="#dbdbdb" transform="translate(-700.59 -399.62)" d="M1148.571,399.62v2.262l-445.735,446.8H700.59Z"/></g><g transform="translate(1012.303 474.794)"><line fill="none" transform="translate(1.131 1.147)" y2="412.095" x1="411.107"/><path fill="#dbdbdb" transform="translate(-723.03 -422.11)" d="M1135.268,422.11v2.262L725.276,835.352H723.03Z"/></g><g transform="translate(1048.046 510.633)"><line fill="none" transform="translate(1.131 1.131)" y2="376.272" x1="375.364"/><path fill="#dbdbdb" transform="translate(-745.47 -444.61)" d="M1121.965,444.61v2.278L747.732,822.013H745.47Z"/></g><g transform="translate(1083.821 546.487)"><line fill="none" transform="translate(1.099 1.115)" y2="340.434" x1="339.621"/><path fill="#dbdbdb" transform="translate(-767.93 -467.12)" d="M1108.651,467.12v2.246l-338.475,339.3H767.93Z"/></g><g transform="translate(1119.564 582.326)"><line fill="none" transform="translate(1.131 1.131)" y2="304.579" x1="303.847"/><path fill="#dbdbdb" transform="translate(-790.37 -489.62)" d="M1095.347,489.62v2.246L792.616,795.33H790.37Z"/></g><g transform="translate(1155.307 618.164)"><line fill="none" transform="translate(1.131 1.115)" y2="268.757" x1="268.104"/><path fill="#dbdbdb" transform="translate(-812.81 -512.12)" d="M1082.045,512.12v2.246L815.072,781.992H812.81Z"/></g><g transform="translate(1191.066 653.987)"><line fill="none" transform="translate(1.115 1.131)" y2="232.918" x1="232.361"/><path fill="#dbdbdb" transform="translate(-835.26 -534.61)" d="M1068.736,534.61v2.262L837.506,768.659H835.26Z"/></g><g transform="translate(1226.809 689.825)"><line fill="none" transform="translate(1.131 1.131)" y2="197.08" x1="196.602"/><path fill="#dbdbdb" transform="translate(-857.7 -557.11)" d="M1055.433,557.11v2.262L859.962,755.321H857.7Z"/></g><g transform="translate(1262.568 725.679)"><line fill="none" transform="translate(1.115 1.115)" y2="161.241" x1="160.859"/><path fill="#dbdbdb" transform="translate(-880.15 -579.62)" d="M1042.124,579.62v2.246L882.4,741.976H880.15Z"/></g><g transform="translate(1298.311 761.502)"><line fill="none" transform="translate(1.131 1.131)" y2="125.403" x1="125.1"/><path fill="#dbdbdb" transform="translate(-902.59 -602.11)" d="M1028.821,602.11v2.246L904.836,728.644H902.59Z"/></g><g transform="translate(1334.069 797.34)"><line fill="none" transform="translate(1.115 1.131)" y2="89.564" x1="89.357"/><path fill="#dbdbdb" transform="translate(-925.04 -624.61)" d="M1015.512,624.61v2.246l-88.226,88.449H925.04Z"/></g><g transform="translate(1369.812 833.179)"><line fill="none" transform="translate(1.131 1.131)" y2="53.726" x1="53.598"/><path fill="#dbdbdb" transform="translate(-947.48 -647.11)" d="M1002.209,647.11v2.246l-52.484,52.611H947.48Z"/></g><g transform="translate(1405.555 869.002)"><line fill="none" transform="translate(1.131 1.147)" y2="17.887" x1="17.856"/><path fill="#dbdbdb" transform="translate(-969.92 -669.6)" d="M988.907,669.6v2.278l-16.725,16.756H969.92Z"/></g></g></svg>